<svg width="401" height="240" viewBox="0 0 401 240" fill="none" xmlns="http://www.w3.org/2000/svg">
<g clip-path="url(#clip0_1308_790)">
<path d="M306.935 236.969C301.803 232.632 298.685 225.781 299.503 219.112C300.32 212.442 305.384 206.311 311.953 204.894C318.521 203.478 326.009 207.399 328.004 213.815C329.102 201.444 330.367 188.555 336.945 178.02C342.9 168.481 353.215 161.656 364.394 160.435C375.573 159.213 387.343 163.825 394.315 172.649C401.287 181.472 402.994 194.3 398.111 204.43C394.514 211.892 387.887 217.446 380.943 221.964C358.506 236.441 331.595 242.328 305.163 238.542L306.935 236.969Z" fill="#F2F2F2"/>
<path d="M383.26 164.081C374.036 171.594 365.574 179.997 357.996 189.168C346.137 203.472 336.541 219.508 329.541 236.72C329.028 237.976 331.067 238.522 331.574 237.28C343.027 209.308 361.31 184.654 384.751 165.572C385.804 164.715 384.304 163.231 383.26 164.081Z" fill="white"/>
<path d="M129.055 235.791C136.104 229.834 140.386 220.424 139.264 211.264C138.141 202.103 131.185 193.681 122.163 191.736C113.141 189.791 102.857 195.176 100.117 203.989C98.6087 186.997 96.8709 169.294 87.8372 154.825C79.6574 141.723 65.49 132.348 50.1356 130.67C34.7812 128.993 18.615 135.328 9.03908 147.447C-0.536876 159.566 -2.88151 177.184 3.82524 191.098C8.76587 201.348 17.8682 208.976 27.4053 215.181C57.8317 234.98 95.5756 243.237 131.49 237.952" fill="#F2F2F2"/>
<path d="M24.2228 135.679C36.892 145.998 48.5147 157.54 58.9227 170.136C69.3324 182.719 78.4971 196.283 86.2879 210.636C90.6426 218.687 94.5545 226.971 98.0062 235.448C98.71 237.173 95.9095 237.924 95.2136 236.218C89.0998 221.272 81.5358 206.961 72.6302 193.49C63.7679 180.068 53.6245 167.537 42.3424 156.073C35.9613 149.593 29.2286 143.468 22.175 137.727C20.7291 136.549 22.7889 134.511 24.2227 135.679L24.2228 135.679Z" fill="white"/>
<path d="M287.77 239.155H119.578V66.5856C119.578 29.8701 149.448 0 186.163 0H221.184C257.9 0 287.77 29.8701 287.77 66.5856V239.155Z" fill="#F2F2F2"/>
<path d="M252.749 239.155H119.578V66.5856C119.541 52.5171 123.996 38.8041 132.294 27.4433C132.6 27.0264 132.905 26.6148 133.219 26.2078C137.233 20.9437 142.009 16.3076 147.391 12.4527C147.695 12.2315 148 12.0141 148.31 11.7968C152.813 8.68059 157.684 6.13316 162.812 4.21248C163.117 4.09706 163.427 3.9814 163.737 3.87047C168.375 2.21532 173.183 1.08154 178.072 0.490082C178.375 0.448679 178.686 0.41628 178.997 0.383881C183.761 -0.125519 188.566 -0.125519 193.33 0.383881C193.641 0.41628 193.952 0.448675 194.258 0.490525C199.146 1.08202 203.953 2.21566 208.59 3.8705C208.9 3.98142 209.21 4.09707 209.515 4.21272C214.58 6.10917 219.394 8.61859 223.849 11.685C224.159 11.8976 224.468 12.115 224.774 12.3323C227.79 14.4855 230.623 16.8843 233.245 19.5042C235.347 21.6056 237.306 23.8456 239.108 26.2092C239.422 26.6149 239.727 27.0264 240.032 27.4426C248.33 38.8036 252.786 52.5168 252.749 66.5856V239.155Z" fill="#CCCCCC"/>
<path d="M241.92 161.971C245.992 161.971 249.293 158.67 249.293 154.598C249.293 150.527 245.992 147.226 241.92 147.226C237.848 147.226 234.547 150.527 234.547 154.598C234.547 158.67 237.848 161.971 241.92 161.971Z" fill="white"/>
<path d="M273.991 233.986H268.342L265.654 212.196L273.992 212.197L273.991 233.986Z" fill="#FFB8B8"/>
<path d="M264.306 232.372H275.201V239.232H257.447C257.447 238.331 257.624 237.439 257.969 236.607C258.313 235.775 258.819 235.018 259.456 234.381C260.093 233.744 260.849 233.239 261.681 232.894C262.514 232.549 263.406 232.372 264.306 232.372Z" fill="#2F2E41"/>
<path d="M302.1 233.986H296.451L293.763 212.196L302.101 212.197L302.1 233.986Z" fill="#FFB8B8"/>
<path d="M292.415 232.372H303.31V239.232H285.555C285.555 238.331 285.733 237.439 286.077 236.607C286.422 235.775 286.928 235.018 287.565 234.381C288.202 233.744 288.958 233.239 289.79 232.894C290.622 232.549 291.514 232.372 292.415 232.372Z" fill="#2F2E41"/>
<path d="M245.651 156.059C245.245 155.46 244.975 154.78 244.86 154.065C244.745 153.35 244.788 152.619 244.986 151.923C245.184 151.227 245.533 150.583 246.007 150.036C246.481 149.49 247.069 149.053 247.73 148.758L266.934 95.8279L276.384 100.985L254.457 151.567C254.878 152.71 254.866 153.968 254.423 155.103C253.979 156.238 253.134 157.17 252.049 157.724C250.964 158.278 249.713 158.414 248.534 158.107C247.355 157.8 246.329 157.071 245.651 156.059Z" fill="#FFB8B8"/>
<path d="M299.214 166.005C298.586 165.645 298.045 165.152 297.629 164.56C297.212 163.968 296.93 163.292 296.803 162.58C296.676 161.867 296.707 161.136 296.893 160.436C297.079 159.737 297.416 159.087 297.881 158.532L291.932 102.541L302.686 103.032L305.158 158.107C306.039 158.949 306.58 160.085 306.678 161.3C306.777 162.514 306.427 163.723 305.694 164.696C304.962 165.67 303.897 166.341 302.703 166.582C301.509 166.823 300.267 166.618 299.214 166.005Z" fill="#FFB8B8"/>
<path d="M282.058 86.0238C288.309 86.0238 293.376 80.9566 293.376 74.706C293.376 68.4554 288.309 63.3883 282.058 63.3883C275.808 63.3883 270.741 68.4554 270.741 74.706C270.741 80.9566 275.808 86.0238 282.058 86.0238Z" fill="#FFB8B8"/>
<path d="M299.142 153.271H265.021L265.062 153.005C265.123 152.608 271.143 113.174 266.703 100.273C266.258 99.0052 266.297 97.6175 266.813 96.3768C267.33 95.1362 268.287 94.1303 269.5 93.553H269.5C275.846 90.5645 288.028 86.8846 298.31 95.8151C299.823 97.1509 301.004 98.8203 301.76 100.691C302.517 102.563 302.828 104.584 302.668 106.596L299.142 153.271Z" fill="white"/>
<path d="M271.574 119.002L256.213 115.885L263.413 98.822C263.844 97.1693 264.913 95.755 266.385 94.8894C267.858 94.0237 269.613 93.7772 271.267 94.2042C272.921 94.6311 274.338 95.6965 275.207 97.1666C276.076 98.6368 276.327 100.392 275.904 102.046L271.574 119.002Z" fill="white"/>
<path d="M291.249 124.788L290.325 103.619C289.625 99.6391 291.903 95.8771 295.407 95.2621C298.911 94.6495 302.333 97.4095 303.037 101.418L306.508 121.199L291.249 124.788Z" fill="white"/>
<path d="M298.007 150.736C303.497 171.646 304.096 198.231 302.615 227.229L295.242 226.307L281.879 171.011L274.506 227.229L266.212 226.768C263.734 196.342 261.321 170.221 265.29 153.04L298.007 150.736Z" fill="#2F2E41"/>
<path d="M289.516 83.4527C287.404 85.7017 283.483 84.4944 283.208 81.4219C283.186 81.1833 283.188 80.9432 283.213 80.705C283.355 79.344 284.141 78.1084 283.953 76.6713C283.91 76.3137 283.777 75.9729 283.565 75.6811C281.883 73.4281 277.933 76.6888 276.346 74.6493C275.372 73.3986 276.516 71.4296 275.769 70.0318C274.783 68.1869 271.862 69.097 270.031 68.0867C267.993 66.9626 268.114 63.8357 269.456 61.9338C271.092 59.6143 273.961 58.3766 276.793 58.1982C279.626 58.0199 282.44 58.7856 285.084 59.8163C288.089 60.9874 291.069 62.6058 292.918 65.248C295.167 68.4613 295.383 72.7811 294.259 76.5384C293.575 78.824 291.24 81.6161 289.516 83.4527Z" fill="#2F2E41"/>
<path d="M387.063 239.452H46.8576C46.7124 239.451 46.5732 239.393 46.4707 239.29C46.3681 239.188 46.3105 239.048 46.3105 238.903C46.3105 238.758 46.3681 238.618 46.4707 238.516C46.5732 238.413 46.7124 238.355 46.8576 238.354H387.063C387.209 238.355 387.348 238.413 387.45 238.516C387.553 238.618 387.611 238.758 387.611 238.903C387.611 239.048 387.553 239.188 387.45 239.29C387.348 239.393 387.209 239.451 387.063 239.452Z" fill="#3F3D56"/>
<path d="M216.115 189.158H156.211C155.422 189.163 154.664 188.854 154.102 188.3C153.541 187.745 153.222 186.991 153.216 186.202V52.4921C153.222 51.7032 153.541 50.9489 154.102 50.3947C154.664 49.8405 155.422 49.5317 156.211 49.5359H216.115C216.904 49.5317 217.662 49.8405 218.224 50.3947C218.785 50.9489 219.104 51.7032 219.11 52.4921V186.202C219.104 186.991 218.785 187.745 218.224 188.3C217.662 188.854 216.904 189.163 216.115 189.158Z" fill="white"/>
<path d="M219.11 92.8003H153.216V93.7219H219.11V92.8003Z" fill="#CCCCCC"/>
<path d="M219.341 145.382H153.446V146.304H219.341V145.382Z" fill="#CCCCCC"/>
<path d="M174.874 49.536H173.952V189.619H174.874V49.536Z" fill="#CCCCCC"/>
<path d="M197.914 49.536H196.992V189.619H197.914V49.536Z" fill="#CCCCCC"/>
</g>
<defs>
<clipPath id="clip0_1308_790">
<rect width="400.896" height="239.68" fill="white"/>
</clipPath>
</defs>
</svg>
