<svg width="278" height="324" viewBox="0 0 278 324" fill="none" xmlns="http://www.w3.org/2000/svg">
<g clip-path="url(#clip0_1308_661)">
<path d="M268.088 119.1H8.71693C6.40587 119.097 4.19023 118.178 2.55607 116.543C0.921908 114.909 0.00266852 112.694 0 110.383V8.71689C0.00266852 6.40584 0.921908 4.1902 2.55607 2.55604C4.19023 0.921878 6.40587 0.00263801 8.71693 -3.05176e-05H268.088C270.399 0.00263801 272.614 0.921878 274.249 2.55604C275.883 4.1902 276.802 6.40584 276.805 8.71689V110.383C276.802 112.694 275.883 114.909 274.249 116.543C272.614 118.178 270.399 119.097 268.088 119.1Z" fill="#F2F2F2"/>
<path d="M207.597 113.54H49.8881C38.1358 113.527 26.8688 108.852 18.5587 100.542C10.2486 92.2322 5.57417 80.9651 5.56091 69.2129V49.8915C5.57416 38.1392 10.2486 26.8721 18.5586 18.562C26.8687 10.2518 38.1358 5.57734 49.8881 5.56401H226.918C238.67 5.57734 249.937 10.2518 258.247 18.562C266.557 26.8721 271.232 38.1392 271.245 49.8915C271.226 66.7663 264.514 82.9445 252.582 94.8767C240.65 106.809 224.471 113.521 207.597 113.54Z" fill="white"/>
<path d="M166.914 34.6676H62.6669C62.0707 34.6676 61.4989 34.4307 61.0773 34.0091C60.6557 33.5875 60.4188 33.0157 60.4188 32.4195C60.4188 31.8232 60.6557 31.2514 61.0773 30.8298C61.4989 30.4082 62.0707 30.1714 62.6669 30.1714H166.914C167.51 30.1714 168.082 30.4082 168.504 30.8298C168.925 31.2514 169.162 31.8232 169.162 32.4195C169.162 33.0157 168.925 33.5875 168.504 34.0091C168.082 34.4307 167.51 34.6676 166.914 34.6676Z" fill="#E6E6E6"/>
<path d="M219.686 58.6533H62.6669C62.0707 58.6533 61.4989 58.4164 61.0773 57.9948C60.6557 57.5732 60.4188 57.0014 60.4188 56.4052C60.4188 55.8089 60.6557 55.2371 61.0773 54.8155C61.4989 54.3939 62.0707 54.1571 62.6669 54.1571H219.686C220.282 54.1571 220.854 54.3939 221.276 54.8155C221.697 55.2371 221.934 55.8089 221.934 56.4052C221.934 57.0014 221.697 57.5732 221.276 57.9948C220.854 58.4164 220.282 58.6533 219.686 58.6533Z" fill="#E6E6E6"/>
<path d="M219.686 82.639H62.6669C62.0707 82.639 61.4989 82.4021 61.0773 81.9805C60.6557 81.5589 60.4188 80.9871 60.4188 80.3909C60.4188 79.7946 60.6557 79.2228 61.0773 78.8012C61.4989 78.3796 62.0707 78.1428 62.6669 78.1428H219.686C220.282 78.1428 220.854 78.3796 221.276 78.8012C221.697 79.2228 221.934 79.7946 221.934 80.3909C221.934 80.9871 221.697 81.5589 221.276 81.9805C220.854 82.4021 220.282 82.639 219.686 82.639Z" fill="#E6E6E6"/>
<path d="M219.686 82.639H62.6669C62.0707 82.639 61.4989 82.4021 61.0773 81.9805C60.6557 81.5589 60.4188 80.9871 60.4188 80.3909C60.4188 79.7946 60.6557 79.2228 61.0773 78.8012C61.4989 78.3796 62.0707 78.1428 62.6669 78.1428H219.686C220.282 78.1428 220.854 78.3796 221.276 78.8012C221.697 79.2228 221.934 79.7946 221.934 80.3909C221.934 80.9871 221.697 81.5589 221.276 81.9805C220.854 82.4021 220.282 82.639 219.686 82.639Z" fill="#E6E6E6"/>
<path d="M155.913 61.4062C155.938 62.0834 156.112 62.7468 156.421 63.3498C156.73 63.9528 157.167 64.4807 157.703 64.8963C158.238 65.3119 158.858 65.6051 159.518 65.7552C160.179 65.9053 160.865 65.9088 161.527 65.7652L170.101 79.8299L173.749 72.087L165.049 59.918C164.734 58.8215 164.027 57.8785 163.064 57.2678C162.1 56.6571 160.946 56.4212 159.82 56.6046C158.694 56.788 157.674 57.3781 156.954 58.2631C156.234 59.1481 155.864 60.2664 155.913 61.4062H155.913Z" fill="#FFB6B6"/>
<path d="M220.251 101.715L190.705 85.6886L181.386 76.9452C181.386 76.9452 177.335 75.8605 178.826 74.5432C180.317 73.2259 176.068 71.9555 176.068 71.9555L171.065 67.2618L163.956 72.2918L166.013 75.481C166.013 75.481 165.872 80.7606 168.764 79.7449C171.656 78.7292 170.934 83.1079 170.934 83.1079L188.197 109.868L220.251 101.715Z" fill="#3F3D56"/>
<path d="M133.036 86.6157C148.974 86.6157 161.895 73.6951 161.895 57.7568C161.895 41.8185 148.974 28.8979 133.036 28.8979C117.098 28.8979 104.177 41.8185 104.177 57.7568C104.177 73.6951 117.098 86.6157 133.036 86.6157Z" fill="white"/>
<path d="M220.342 311.916H214.342L211.486 288.772H220.342V311.916Z" fill="#FFB6B6"/>
<path d="M223.51 322.313H219.206L218.438 318.25L216.471 322.313H205.058C204.511 322.313 203.978 322.138 203.537 321.814C203.097 321.49 202.771 321.033 202.608 320.511C202.446 319.989 202.454 319.428 202.632 318.911C202.811 318.394 203.15 317.947 203.6 317.636L212.714 311.342V307.234L222.301 307.807L223.51 322.313Z" fill="#2F2E41"/>
<path d="M172.35 311.916H166.35L163.494 288.772H172.35V311.916Z" fill="#FFB6B6"/>
<path d="M175.517 322.313H171.214L170.446 318.25L168.479 322.313H157.066C156.519 322.313 155.986 322.138 155.545 321.814C155.105 321.49 154.779 321.033 154.616 320.511C154.454 319.989 154.462 319.428 154.64 318.911C154.819 318.394 155.158 317.947 155.608 317.636L164.722 311.342V307.234L174.309 307.807L175.517 322.313Z" fill="#2F2E41"/>
<path d="M213.975 136.874H183.689V171.354H213.975V136.874Z" fill="#FFB6B6"/>
<path d="M184.388 153.881L179.263 159.939L170.41 178.576L148.103 231.652L143.385 242.876L147.195 262.719C147.195 262.719 147.812 276.699 147.812 278.987C147.812 283.646 151.709 286.228 151.709 286.228L154.568 301.119L182.291 299.954C182.291 299.954 181.324 283.54 175.518 279.4C169.711 275.259 167.042 253.681 167.042 253.681L163.887 244.107L194.639 207.654L194.837 220.396L194.933 226.564C194.933 226.564 190.43 266.678 195.68 274.463C200.929 282.248 195.787 281.333 195.787 281.333L196.037 297.392L228.886 297.625L221.639 251.39C221.639 251.39 217.959 248.485 219.928 245.564C221.897 242.643 218.02 239.066 218.02 239.066L219.758 202.972C219.758 202.972 217.833 196.738 220.098 195.928C222.362 195.117 220.395 189.756 220.395 189.756L220.732 182.77L213.976 161.103L184.388 153.881Z" fill="#2F2E41"/>
<path d="M214.441 136.874L217.703 127.09L220.033 123.828L220.965 114.509C220.965 89.3482 215.352 93.538 215.352 93.538L212.112 84.6888L197.202 84.2229L187.65 93.3087L179.729 96.1044L176.627 112.221L182.291 129.419L183.689 138.738C181.023 143.661 181.248 141.332 183.456 145.028L209.782 152.25C219.101 155.512 219.101 147.125 217.232 145.028C215.364 142.932 214.441 136.874 214.441 136.874Z" fill="#3F3D56"/>
<path d="M202.731 81.0951C210.364 81.0951 216.553 74.9066 216.553 67.2728C216.553 59.639 210.364 53.4506 202.731 53.4506C195.097 53.4506 188.908 59.639 188.908 67.2728C188.908 74.9066 195.097 81.0951 202.731 81.0951Z" fill="#FFB6B6"/>
<path d="M221.184 85.7232C221.314 85.9429 221.393 86.1892 221.415 86.4437C221.436 86.6982 221.401 86.9543 221.31 87.193C221.219 87.4317 221.075 87.6468 220.889 87.8223C220.704 87.9978 220.481 88.1292 220.238 88.2066C218.383 88.8217 217.242 90.6156 215.909 92.0507C214.581 93.4811 212.443 94.6693 210.746 93.6954C209.055 92.7263 208.939 90.2521 207.522 88.9102C206.143 87.6056 203.851 87.764 202.229 88.7565L202.181 88.7863C201.901 88.9688 201.573 89.0652 201.239 89.0637C200.905 89.0622 200.579 88.9628 200.301 88.7777C200.022 88.5927 199.805 88.3302 199.674 88.0227C199.543 87.7151 199.506 87.3761 199.566 87.0474C200.134 84.0259 200.702 81.0047 201.269 77.9839C199.778 81.5765 197.613 84.8504 194.89 87.6289C194.141 88.4942 193.19 89.1629 192.123 89.5765C191.154 89.8841 190.212 88.8823 189.271 89.064C191.61 87.0185 199.475 73.9068 198.068 65.1425C196.414 65.3288 194.76 65.5152 193.106 65.7016C192.927 64.9188 192.544 64.1971 191.997 63.6095C192.064 64.3714 191.967 65.1387 191.713 65.86C191.023 65.9392 190.329 66.0138 189.639 66.093C188.679 66.2002 187.636 66.2933 186.811 65.7901C185.436 64.9515 185.395 62.9665 185.786 61.4009C186.932 56.8487 190.408 53.0419 194.662 51.0477C198.916 49.0581 200.174 53.4892 204.657 52.0728C213.509 49.2772 220.294 54.0577 222.684 62.9293C224.692 70.3704 223.234 78.2681 221.184 85.7232Z" fill="#2F2E41"/>
<path d="M259.45 322.614H242.525L242.452 322.482C242.236 322.089 242.027 321.673 241.832 321.246C240.088 317.514 239.351 313.245 238.701 309.479L238.212 306.64C238.152 306.296 238.197 305.942 238.34 305.624C238.483 305.306 238.717 305.038 239.014 304.853C239.31 304.669 239.654 304.578 240.003 304.59C240.352 304.603 240.689 304.72 240.971 304.925C243.543 306.797 246.116 308.667 248.69 310.535C249.665 311.244 250.778 312.065 251.844 312.952C251.947 312.452 252.055 311.951 252.162 311.457C252.236 311.116 252.411 310.805 252.663 310.563C252.915 310.322 253.233 310.161 253.577 310.101C253.921 310.042 254.275 310.086 254.594 310.229C254.912 310.372 255.181 310.607 255.365 310.903L257.345 314.085C258.79 316.408 260.065 318.698 259.805 321.167C259.806 321.197 259.804 321.227 259.798 321.257C259.746 321.662 259.65 322.061 259.511 322.445L259.45 322.614Z" fill="#F0F0F0"/>
<path d="M276.438 322.98L115.605 323.137C115.445 323.136 115.291 323.071 115.178 322.958C115.065 322.844 115.001 322.69 115.001 322.529C115.001 322.369 115.065 322.215 115.178 322.101C115.291 321.987 115.445 321.923 115.605 321.922L276.438 321.765C276.598 321.766 276.752 321.831 276.865 321.944C276.978 322.058 277.042 322.212 277.042 322.373C277.042 322.533 276.978 322.687 276.865 322.801C276.752 322.915 276.598 322.979 276.438 322.98Z" fill="#CACACA"/>
<path d="M130.413 96.5987L112.722 81.6589C112.117 81.1471 111.74 80.4163 111.674 79.6269C111.607 78.8375 111.856 78.0539 112.367 77.4481L115.623 73.5924C116.135 72.9877 116.865 72.6107 117.655 72.5442C118.444 72.4776 119.228 72.7269 119.834 73.2374L137.525 88.1773C138.129 88.6891 138.506 89.4198 138.573 90.2093C138.639 90.9987 138.39 91.7823 137.88 92.3881L134.623 96.2437C134.112 96.8484 133.381 97.2254 132.591 97.292C131.802 97.3585 131.018 97.1092 130.413 96.5987Z" fill="#3F3D56"/>
<path d="M113.65 77.7589C113.375 78.0854 113.241 78.5076 113.277 78.933C113.312 79.3584 113.516 79.7522 113.841 80.0281L131.532 94.9679C131.859 95.243 132.281 95.3773 132.706 95.3414C133.132 95.3056 133.526 95.1024 133.801 94.7766L137.058 90.921C137.333 90.5945 137.467 90.1722 137.431 89.7468C137.395 89.3214 137.192 88.9276 136.866 88.6518L119.175 73.712C118.849 73.4369 118.427 73.3026 118.001 73.3385C117.576 73.3743 117.182 73.5774 116.906 73.9033L113.65 77.7589Z" fill="white"/>
<path d="M124.036 83.5667C123.974 83.6526 123.894 83.723 123.8 83.7724C123.707 83.8217 123.604 83.8487 123.498 83.8511L120.718 83.9149C120.629 83.917 120.54 83.9014 120.457 83.8691C120.374 83.8368 120.298 83.7885 120.233 83.7268C120.168 83.6651 120.117 83.5913 120.081 83.5096C120.044 83.4278 120.025 83.3398 120.023 83.2505C120.021 83.1612 120.036 83.0724 120.069 82.9891C120.101 82.9058 120.149 82.8297 120.211 82.7651C120.273 82.7005 120.346 82.6487 120.428 82.6127C120.51 82.5766 120.598 82.557 120.687 82.5549L122.506 82.5131L120.715 77.7878C120.651 77.6192 120.657 77.4323 120.732 77.2682C120.806 77.1041 120.942 76.976 121.11 76.9122C121.279 76.8484 121.466 76.854 121.63 76.9277C121.794 77.0015 121.923 77.1374 121.987 77.3057L124.118 82.93C124.157 83.0318 124.171 83.1413 124.158 83.2493C124.146 83.3574 124.107 83.4609 124.047 83.5511L124.036 83.5667Z" fill="white"/>
<path d="M124.392 84.7542C125.063 84.8526 125.703 85.0969 126.269 85.4698C126.835 85.8426 127.312 86.335 127.667 86.9123C128.022 87.4895 128.246 88.1375 128.324 88.8107C128.401 89.4839 128.33 90.1659 128.115 90.8086L141.164 100.86L133.07 103.646L121.92 93.6733C120.864 93.2411 120.003 92.4366 119.501 91.4123C118.999 90.3879 118.89 89.2149 119.194 88.1155C119.499 87.0161 120.197 86.0667 121.155 85.4472C122.113 84.8277 123.265 84.5811 124.392 84.7542L124.392 84.7542Z" fill="#FFB6B6"/>
<path d="M192.329 89.7243L158.919 110.266C158.919 110.266 145.448 105.282 148.081 102.975C150.714 100.667 142.333 99.1074 142.333 99.1074L133.075 92.8788L127.702 99.1223C127.702 99.1223 128.681 109.264 130.347 107.508C132.012 105.752 134.502 110.549 134.502 110.549C134.502 110.549 135.238 115.905 139.979 114.557C144.72 113.209 157.442 127.338 157.442 127.338L198.56 112.003L192.329 89.7243Z" fill="#3F3D56"/>
<path d="M132.021 69.3333C131.634 69.3333 131.252 69.2431 130.905 69.0698C130.559 68.8966 130.258 68.645 130.025 68.3351L123.907 60.1764C123.71 59.9143 123.567 59.616 123.486 59.2986C123.404 58.9813 123.386 58.651 123.433 58.3266C123.479 58.0023 123.589 57.6903 123.756 57.4084C123.923 57.1265 124.143 56.8802 124.406 56.6836C124.935 56.2866 125.6 56.1162 126.255 56.2098C126.58 56.2561 126.892 56.3659 127.174 56.5328C127.456 56.6998 127.702 56.9206 127.898 57.1827L131.902 62.5199L142.183 47.0975C142.55 46.5469 143.121 46.1647 143.77 46.035C144.419 45.9052 145.093 46.0385 145.643 46.4055C146.194 46.7726 146.576 47.3433 146.706 47.9922C146.836 48.641 146.702 49.3148 146.335 49.8654L134.097 68.2222C133.876 68.5542 133.578 68.8283 133.229 69.0215C132.88 69.2147 132.489 69.3213 132.091 69.3325C132.067 69.3329 132.044 69.3333 132.021 69.3333Z" fill="white"/>
</g>
<defs>
<clipPath id="clip0_1308_661">
<rect width="277.042" height="323.137" fill="white"/>
</clipPath>
</defs>
</svg>
